<mxfile host="app.diagrams.net" modified="2024-03-27T10:38:01.088Z" agent="Mozilla/5.0 (Windows NT 10.0; Win64; x64) AppleWebKit/537.36 (KHTML, like Gecko) Chrome/123.0.0.0 Safari/537.36" etag="S1duXsVqKETKCPN3xJJM" version="24.2.0" type="device">
  <diagram id="C5RBs43oDa-KdzZeNtuy" name="Page-1">
    <mxGraphModel dx="2954" dy="1132" grid="1" gridSize="10" guides="1" tooltips="1" connect="1" arrows="1" fold="1" page="1" pageScale="1" pageWidth="2336" pageHeight="1654" math="0" shadow="0">
      <root>
        <mxCell id="WIyWlLk6GJQsqaUBKTNV-0" />
        <mxCell id="WIyWlLk6GJQsqaUBKTNV-1" parent="WIyWlLk6GJQsqaUBKTNV-0" />
        <mxCell id="gWq2CXGKpFRg3qJBpqlr-2" value="" style="rounded=0;whiteSpace=wrap;html=1;" parent="WIyWlLk6GJQsqaUBKTNV-1" vertex="1">
          <mxGeometry x="40" y="40" width="1240" height="460" as="geometry" />
        </mxCell>
        <mxCell id="zkfFHV4jXpPFQw0GAbJ--0" value="API" style="swimlane;fontStyle=3;align=center;verticalAlign=top;childLayout=stackLayout;horizontal=1;startSize=26;horizontalStack=0;resizeParent=1;resizeLast=0;collapsible=1;marginBottom=0;rounded=0;shadow=0;strokeWidth=1;" parent="WIyWlLk6GJQsqaUBKTNV-1" vertex="1">
          <mxGeometry x="60" y="320" width="400" height="170" as="geometry">
            <mxRectangle x="230" y="140" width="160" height="26" as="alternateBounds" />
          </mxGeometry>
        </mxCell>
        <mxCell id="zkfFHV4jXpPFQw0GAbJ--1" value="#baseUrl: string" style="text;align=left;verticalAlign=top;spacingLeft=4;spacingRight=4;overflow=hidden;rotatable=0;points=[[0,0.5],[1,0.5]];portConstraint=eastwest;fontStyle=1" parent="zkfFHV4jXpPFQw0GAbJ--0" vertex="1">
          <mxGeometry y="26" width="400" height="26" as="geometry" />
        </mxCell>
        <mxCell id="zkfFHV4jXpPFQw0GAbJ--2" value="#options: RequestInit" style="text;align=left;verticalAlign=top;spacingLeft=4;spacingRight=4;overflow=hidden;rotatable=0;points=[[0,0.5],[1,0.5]];portConstraint=eastwest;rounded=0;shadow=0;html=0;fontStyle=1" parent="zkfFHV4jXpPFQw0GAbJ--0" vertex="1">
          <mxGeometry y="52" width="400" height="26" as="geometry" />
        </mxCell>
        <mxCell id="zkfFHV4jXpPFQw0GAbJ--4" value="" style="line;html=1;strokeWidth=1;align=left;verticalAlign=middle;spacingTop=-1;spacingLeft=3;spacingRight=3;rotatable=0;labelPosition=right;points=[];portConstraint=eastwest;" parent="zkfFHV4jXpPFQw0GAbJ--0" vertex="1">
          <mxGeometry y="78" width="400" height="8" as="geometry" />
        </mxCell>
        <mxCell id="zkfFHV4jXpPFQw0GAbJ--5" value="#handleResponse(response: Response): Promise" style="text;align=left;verticalAlign=top;spacingLeft=4;spacingRight=4;overflow=hidden;rotatable=0;points=[[0,0.5],[1,0.5]];portConstraint=eastwest;fontStyle=1" parent="zkfFHV4jXpPFQw0GAbJ--0" vertex="1">
          <mxGeometry y="86" width="400" height="26" as="geometry" />
        </mxCell>
        <mxCell id="gWq2CXGKpFRg3qJBpqlr-4" value="get(uri: string): Promise" style="text;align=left;verticalAlign=top;spacingLeft=4;spacingRight=4;overflow=hidden;rotatable=0;points=[[0,0.5],[1,0.5]];portConstraint=eastwest;fontStyle=1" parent="zkfFHV4jXpPFQw0GAbJ--0" vertex="1">
          <mxGeometry y="112" width="400" height="26" as="geometry" />
        </mxCell>
        <mxCell id="gWq2CXGKpFRg3qJBpqlr-5" value="post(uri: string, data: object, method: ApiMethod): Promise" style="text;align=left;verticalAlign=top;spacingLeft=4;spacingRight=4;overflow=hidden;rotatable=0;points=[[0,0.5],[1,0.5]];portConstraint=eastwest;fontStyle=1" parent="zkfFHV4jXpPFQw0GAbJ--0" vertex="1">
          <mxGeometry y="138" width="400" height="26" as="geometry" />
        </mxCell>
        <mxCell id="gWq2CXGKpFRg3qJBpqlr-6" value="&lt;font style=&quot;font-size: 20px;&quot;&gt;Base&lt;/font&gt;" style="text;align=center;fontStyle=1;verticalAlign=middle;spacingLeft=3;spacingRight=3;strokeColor=none;rotatable=0;points=[[0,0.5],[1,0.5]];portConstraint=eastwest;html=1;" parent="WIyWlLk6GJQsqaUBKTNV-1" vertex="1">
          <mxGeometry x="40" y="50" width="80" height="26" as="geometry" />
        </mxCell>
        <mxCell id="gWq2CXGKpFRg3qJBpqlr-7" value="EventEmitter" style="swimlane;fontStyle=3;align=center;verticalAlign=top;childLayout=stackLayout;horizontal=1;startSize=26;horizontalStack=0;resizeParent=1;resizeLast=0;collapsible=1;marginBottom=0;rounded=0;shadow=0;strokeWidth=1;" parent="WIyWlLk6GJQsqaUBKTNV-1" vertex="1">
          <mxGeometry x="60" y="110" width="400" height="170" as="geometry">
            <mxRectangle x="230" y="140" width="160" height="26" as="alternateBounds" />
          </mxGeometry>
        </mxCell>
        <mxCell id="gWq2CXGKpFRg3qJBpqlr-8" value="#events: Map&lt;EventName, Set&lt;Subscriber&gt;&gt;" style="text;align=left;verticalAlign=top;spacingLeft=4;spacingRight=4;overflow=hidden;rotatable=0;points=[[0,0.5],[1,0.5]];portConstraint=eastwest;fontStyle=1" parent="gWq2CXGKpFRg3qJBpqlr-7" vertex="1">
          <mxGeometry y="26" width="400" height="26" as="geometry" />
        </mxCell>
        <mxCell id="gWq2CXGKpFRg3qJBpqlr-10" value="" style="line;html=1;strokeWidth=1;align=left;verticalAlign=middle;spacingTop=-1;spacingLeft=3;spacingRight=3;rotatable=0;labelPosition=right;points=[];portConstraint=eastwest;" parent="gWq2CXGKpFRg3qJBpqlr-7" vertex="1">
          <mxGeometry y="52" width="400" height="8" as="geometry" />
        </mxCell>
        <mxCell id="gWq2CXGKpFRg3qJBpqlr-11" value="on(eventName: string, callback: Function) " style="text;align=left;verticalAlign=top;spacingLeft=4;spacingRight=4;overflow=hidden;rotatable=0;points=[[0,0.5],[1,0.5]];portConstraint=eastwest;fontStyle=1" parent="gWq2CXGKpFRg3qJBpqlr-7" vertex="1">
          <mxGeometry y="60" width="400" height="26" as="geometry" />
        </mxCell>
        <mxCell id="gWq2CXGKpFRg3qJBpqlr-12" value="off(eventName: string, callback: Function)" style="text;align=left;verticalAlign=top;spacingLeft=4;spacingRight=4;overflow=hidden;rotatable=0;points=[[0,0.5],[1,0.5]];portConstraint=eastwest;fontStyle=1" parent="gWq2CXGKpFRg3qJBpqlr-7" vertex="1">
          <mxGeometry y="86" width="400" height="26" as="geometry" />
        </mxCell>
        <mxCell id="gWq2CXGKpFRg3qJBpqlr-13" value="emit(eventName: string, data: object)" style="text;align=left;verticalAlign=top;spacingLeft=4;spacingRight=4;overflow=hidden;rotatable=0;points=[[0,0.5],[1,0.5]];portConstraint=eastwest;fontStyle=1" parent="gWq2CXGKpFRg3qJBpqlr-7" vertex="1">
          <mxGeometry y="112" width="400" height="26" as="geometry" />
        </mxCell>
        <mxCell id="gWq2CXGKpFRg3qJBpqlr-28" style="edgeStyle=orthogonalEdgeStyle;rounded=0;orthogonalLoop=1;jettySize=auto;html=1;" parent="WIyWlLk6GJQsqaUBKTNV-1" source="gWq2CXGKpFRg3qJBpqlr-14" target="gWq2CXGKpFRg3qJBpqlr-20" edge="1">
          <mxGeometry relative="1" as="geometry" />
        </mxCell>
        <mxCell id="gWq2CXGKpFRg3qJBpqlr-29" value="extends" style="edgeLabel;html=1;align=center;verticalAlign=middle;resizable=0;points=[];" parent="gWq2CXGKpFRg3qJBpqlr-28" vertex="1" connectable="0">
          <mxGeometry x="-0.1352" relative="1" as="geometry">
            <mxPoint x="19" as="offset" />
          </mxGeometry>
        </mxCell>
        <mxCell id="gWq2CXGKpFRg3qJBpqlr-14" value="View" style="swimlane;fontStyle=3;align=center;verticalAlign=top;childLayout=stackLayout;horizontal=1;startSize=26;horizontalStack=0;resizeParent=1;resizeLast=0;collapsible=1;marginBottom=0;rounded=0;shadow=0;strokeWidth=1;" parent="WIyWlLk6GJQsqaUBKTNV-1" vertex="1">
          <mxGeometry x="1030" y="110" width="230" height="170" as="geometry">
            <mxRectangle x="230" y="140" width="160" height="26" as="alternateBounds" />
          </mxGeometry>
        </mxCell>
        <mxCell id="gWq2CXGKpFRg3qJBpqlr-15" value="events: EventEmitter" style="text;align=left;verticalAlign=top;spacingLeft=4;spacingRight=4;overflow=hidden;rotatable=0;points=[[0,0.5],[1,0.5]];portConstraint=eastwest;fontStyle=1" parent="gWq2CXGKpFRg3qJBpqlr-14" vertex="1">
          <mxGeometry y="26" width="230" height="26" as="geometry" />
        </mxCell>
        <mxCell id="gWq2CXGKpFRg3qJBpqlr-16" value="" style="line;html=1;strokeWidth=1;align=left;verticalAlign=middle;spacingTop=-1;spacingLeft=3;spacingRight=3;rotatable=0;labelPosition=right;points=[];portConstraint=eastwest;" parent="gWq2CXGKpFRg3qJBpqlr-14" vertex="1">
          <mxGeometry y="52" width="230" height="8" as="geometry" />
        </mxCell>
        <mxCell id="gWq2CXGKpFRg3qJBpqlr-20" value="Component&lt;T&gt;" style="swimlane;fontStyle=3;align=center;verticalAlign=top;childLayout=stackLayout;horizontal=1;startSize=26;horizontalStack=0;resizeParent=1;resizeLast=0;collapsible=1;marginBottom=0;rounded=0;shadow=0;strokeWidth=1;" parent="WIyWlLk6GJQsqaUBKTNV-1" vertex="1">
          <mxGeometry x="510" y="110" width="400" height="170" as="geometry">
            <mxRectangle x="230" y="140" width="160" height="26" as="alternateBounds" />
          </mxGeometry>
        </mxCell>
        <mxCell id="gWq2CXGKpFRg3qJBpqlr-21" value="container: HTMLElement" style="text;align=left;verticalAlign=top;spacingLeft=4;spacingRight=4;overflow=hidden;rotatable=0;points=[[0,0.5],[1,0.5]];portConstraint=eastwest;fontStyle=1" parent="gWq2CXGKpFRg3qJBpqlr-20" vertex="1">
          <mxGeometry y="26" width="400" height="26" as="geometry" />
        </mxCell>
        <mxCell id="gWq2CXGKpFRg3qJBpqlr-22" value="" style="line;html=1;strokeWidth=1;align=left;verticalAlign=middle;spacingTop=-1;spacingLeft=3;spacingRight=3;rotatable=0;labelPosition=right;points=[];portConstraint=eastwest;" parent="gWq2CXGKpFRg3qJBpqlr-20" vertex="1">
          <mxGeometry y="52" width="400" height="8" as="geometry" />
        </mxCell>
        <mxCell id="gWq2CXGKpFRg3qJBpqlr-23" value="setText(element: HTMLElement, value: string): Void" style="text;align=left;verticalAlign=top;spacingLeft=4;spacingRight=4;overflow=hidden;rotatable=0;points=[[0,0.5],[1,0.5]];portConstraint=eastwest;fontStyle=1" parent="gWq2CXGKpFRg3qJBpqlr-20" vertex="1">
          <mxGeometry y="60" width="400" height="26" as="geometry" />
        </mxCell>
        <mxCell id="gWq2CXGKpFRg3qJBpqlr-24" value="setImage(element: HTMLElement, src: string): Void" style="text;align=left;verticalAlign=top;spacingLeft=4;spacingRight=4;overflow=hidden;rotatable=0;points=[[0,0.5],[1,0.5]];portConstraint=eastwest;fontStyle=1" parent="gWq2CXGKpFRg3qJBpqlr-20" vertex="1">
          <mxGeometry y="86" width="400" height="26" as="geometry" />
        </mxCell>
        <mxCell id="gWq2CXGKpFRg3qJBpqlr-25" value="setDisabled(element: HTMLElement, value: boolean): Void " style="text;align=left;verticalAlign=top;spacingLeft=4;spacingRight=4;overflow=hidden;rotatable=0;points=[[0,0.5],[1,0.5]];portConstraint=eastwest;fontStyle=1" parent="gWq2CXGKpFRg3qJBpqlr-20" vertex="1">
          <mxGeometry y="112" width="400" height="26" as="geometry" />
        </mxCell>
        <mxCell id="gWq2CXGKpFRg3qJBpqlr-26" value="render(data: T): HTMLElement" style="text;align=left;verticalAlign=top;spacingLeft=4;spacingRight=4;overflow=hidden;rotatable=0;points=[[0,0.5],[1,0.5]];portConstraint=eastwest;fontStyle=1" parent="gWq2CXGKpFRg3qJBpqlr-20" vertex="1">
          <mxGeometry y="138" width="400" height="26" as="geometry" />
        </mxCell>
        <mxCell id="gWq2CXGKpFRg3qJBpqlr-44" style="edgeStyle=orthogonalEdgeStyle;rounded=0;orthogonalLoop=1;jettySize=auto;html=1;" parent="WIyWlLk6GJQsqaUBKTNV-1" source="gWq2CXGKpFRg3qJBpqlr-30" target="gWq2CXGKpFRg3qJBpqlr-20" edge="1">
          <mxGeometry relative="1" as="geometry">
            <Array as="points">
              <mxPoint x="510" y="405" />
              <mxPoint x="710" y="405" />
            </Array>
          </mxGeometry>
        </mxCell>
        <mxCell id="gWq2CXGKpFRg3qJBpqlr-45" value="extends" style="edgeLabel;html=1;align=center;verticalAlign=middle;resizable=0;points=[];" parent="gWq2CXGKpFRg3qJBpqlr-44" vertex="1" connectable="0">
          <mxGeometry x="-0.1764" y="1" relative="1" as="geometry">
            <mxPoint y="1" as="offset" />
          </mxGeometry>
        </mxCell>
        <mxCell id="gWq2CXGKpFRg3qJBpqlr-30" value="Card" style="swimlane;fontStyle=3;align=center;verticalAlign=top;childLayout=stackLayout;horizontal=1;startSize=26;horizontalStack=0;resizeParent=1;resizeLast=0;collapsible=1;marginBottom=0;rounded=0;shadow=0;strokeWidth=1;fillStyle=auto;swimlaneFillColor=default;" parent="WIyWlLk6GJQsqaUBKTNV-1" vertex="1">
          <mxGeometry x="350" y="530" width="250" height="320" as="geometry">
            <mxRectangle x="230" y="140" width="160" height="26" as="alternateBounds" />
          </mxGeometry>
        </mxCell>
        <mxCell id="gWq2CXGKpFRg3qJBpqlr-37" value="#_title: HTMLElement" style="text;align=left;verticalAlign=top;spacingLeft=4;spacingRight=4;overflow=hidden;rotatable=0;points=[[0,0.5],[1,0.5]];portConstraint=eastwest;fontStyle=1" parent="gWq2CXGKpFRg3qJBpqlr-30" vertex="1">
          <mxGeometry y="26" width="250" height="26" as="geometry" />
        </mxCell>
        <mxCell id="gWq2CXGKpFRg3qJBpqlr-31" value="#_price: HTMLElement" style="text;align=left;verticalAlign=top;spacingLeft=4;spacingRight=4;overflow=hidden;rotatable=0;points=[[0,0.5],[1,0.5]];portConstraint=eastwest;fontStyle=1" parent="gWq2CXGKpFRg3qJBpqlr-30" vertex="1">
          <mxGeometry y="52" width="250" height="26" as="geometry" />
        </mxCell>
        <mxCell id="gWq2CXGKpFRg3qJBpqlr-41" value="#_image: HTMLElement" style="text;align=left;verticalAlign=top;spacingLeft=4;spacingRight=4;overflow=hidden;rotatable=0;points=[[0,0.5],[1,0.5]];portConstraint=eastwest;fontStyle=1" parent="gWq2CXGKpFRg3qJBpqlr-30" vertex="1">
          <mxGeometry y="78" width="250" height="26" as="geometry" />
        </mxCell>
        <mxCell id="gWq2CXGKpFRg3qJBpqlr-36" value="#_description?: HTMLElement" style="text;align=left;verticalAlign=top;spacingLeft=4;spacingRight=4;overflow=hidden;rotatable=0;points=[[0,0.5],[1,0.5]];portConstraint=eastwest;fontStyle=1" parent="gWq2CXGKpFRg3qJBpqlr-30" vertex="1">
          <mxGeometry y="104" width="250" height="26" as="geometry" />
        </mxCell>
        <mxCell id="gWq2CXGKpFRg3qJBpqlr-38" value="#_category?: HTMLElement" style="text;align=left;verticalAlign=top;spacingLeft=4;spacingRight=4;overflow=hidden;rotatable=0;points=[[0,0.5],[1,0.5]];portConstraint=eastwest;fontStyle=1" parent="gWq2CXGKpFRg3qJBpqlr-30" vertex="1">
          <mxGeometry y="130" width="250" height="26" as="geometry" />
        </mxCell>
        <mxCell id="gWq2CXGKpFRg3qJBpqlr-40" value="#_button?: HTMLElement" style="text;align=left;verticalAlign=top;spacingLeft=4;spacingRight=4;overflow=hidden;rotatable=0;points=[[0,0.5],[1,0.5]];portConstraint=eastwest;fontStyle=1" parent="gWq2CXGKpFRg3qJBpqlr-30" vertex="1">
          <mxGeometry y="156" width="250" height="26" as="geometry" />
        </mxCell>
        <mxCell id="gWq2CXGKpFRg3qJBpqlr-32" value="" style="line;html=1;strokeWidth=1;align=left;verticalAlign=middle;spacingTop=-1;spacingLeft=3;spacingRight=3;rotatable=0;labelPosition=right;points=[];portConstraint=eastwest;" parent="gWq2CXGKpFRg3qJBpqlr-30" vertex="1">
          <mxGeometry y="182" width="250" height="8" as="geometry" />
        </mxCell>
        <mxCell id="gWq2CXGKpFRg3qJBpqlr-33" value="set title()" style="text;align=left;verticalAlign=top;spacingLeft=4;spacingRight=4;overflow=hidden;rotatable=0;points=[[0,0.5],[1,0.5]];portConstraint=eastwest;fontStyle=1" parent="gWq2CXGKpFRg3qJBpqlr-30" vertex="1">
          <mxGeometry y="190" width="250" height="26" as="geometry" />
        </mxCell>
        <mxCell id="gWq2CXGKpFRg3qJBpqlr-43" value="set price()" style="text;align=left;verticalAlign=top;spacingLeft=4;spacingRight=4;overflow=hidden;rotatable=0;points=[[0,0.5],[1,0.5]];portConstraint=eastwest;fontStyle=1" parent="gWq2CXGKpFRg3qJBpqlr-30" vertex="1">
          <mxGeometry y="216" width="250" height="26" as="geometry" />
        </mxCell>
        <mxCell id="gWq2CXGKpFRg3qJBpqlr-35" value="set image()" style="text;align=left;verticalAlign=top;spacingLeft=4;spacingRight=4;overflow=hidden;rotatable=0;points=[[0,0.5],[1,0.5]];portConstraint=eastwest;fontStyle=1" parent="gWq2CXGKpFRg3qJBpqlr-30" vertex="1">
          <mxGeometry y="242" width="250" height="26" as="geometry" />
        </mxCell>
        <mxCell id="gWq2CXGKpFRg3qJBpqlr-34" value="set description()" style="text;align=left;verticalAlign=top;spacingLeft=4;spacingRight=4;overflow=hidden;rotatable=0;points=[[0,0.5],[1,0.5]];portConstraint=eastwest;fontStyle=1" parent="gWq2CXGKpFRg3qJBpqlr-30" vertex="1">
          <mxGeometry y="268" width="250" height="26" as="geometry" />
        </mxCell>
        <mxCell id="gWq2CXGKpFRg3qJBpqlr-42" value="set category()" style="text;align=left;verticalAlign=top;spacingLeft=4;spacingRight=4;overflow=hidden;rotatable=0;points=[[0,0.5],[1,0.5]];portConstraint=eastwest;fontStyle=1" parent="gWq2CXGKpFRg3qJBpqlr-30" vertex="1">
          <mxGeometry y="294" width="250" height="26" as="geometry" />
        </mxCell>
        <mxCell id="gWq2CXGKpFRg3qJBpqlr-59" style="edgeStyle=orthogonalEdgeStyle;rounded=0;orthogonalLoop=1;jettySize=auto;html=1;" parent="WIyWlLk6GJQsqaUBKTNV-1" edge="1">
          <mxGeometry relative="1" as="geometry">
            <mxPoint x="830" y="520" as="sourcePoint" />
            <mxPoint x="1150" y="270" as="targetPoint" />
            <Array as="points">
              <mxPoint x="830" y="450" />
              <mxPoint x="1150" y="450" />
            </Array>
          </mxGeometry>
        </mxCell>
        <mxCell id="gWq2CXGKpFRg3qJBpqlr-60" value="extends" style="edgeLabel;html=1;align=center;verticalAlign=middle;resizable=0;points=[];" parent="gWq2CXGKpFRg3qJBpqlr-59" vertex="1" connectable="0">
          <mxGeometry x="-0.1348" relative="1" as="geometry">
            <mxPoint as="offset" />
          </mxGeometry>
        </mxCell>
        <mxCell id="gWq2CXGKpFRg3qJBpqlr-46" value="Page" style="swimlane;fontStyle=3;align=center;verticalAlign=top;childLayout=stackLayout;horizontal=1;startSize=26;horizontalStack=0;resizeParent=1;resizeLast=0;collapsible=1;marginBottom=0;rounded=0;shadow=0;strokeWidth=1;fillStyle=auto;swimlaneFillColor=default;" parent="WIyWlLk6GJQsqaUBKTNV-1" vertex="1">
          <mxGeometry x="670" y="530" width="310" height="240" as="geometry">
            <mxRectangle x="230" y="140" width="160" height="26" as="alternateBounds" />
          </mxGeometry>
        </mxCell>
        <mxCell id="gWq2CXGKpFRg3qJBpqlr-47" value="#_basket: HTMLElement" style="text;align=left;verticalAlign=top;spacingLeft=4;spacingRight=4;overflow=hidden;rotatable=0;points=[[0,0.5],[1,0.5]];portConstraint=eastwest;fontStyle=1" parent="gWq2CXGKpFRg3qJBpqlr-46" vertex="1">
          <mxGeometry y="26" width="310" height="26" as="geometry" />
        </mxCell>
        <mxCell id="gWq2CXGKpFRg3qJBpqlr-48" value="#_catalog: HTMLElement" style="text;align=left;verticalAlign=top;spacingLeft=4;spacingRight=4;overflow=hidden;rotatable=0;points=[[0,0.5],[1,0.5]];portConstraint=eastwest;fontStyle=1" parent="gWq2CXGKpFRg3qJBpqlr-46" vertex="1">
          <mxGeometry y="52" width="310" height="26" as="geometry" />
        </mxCell>
        <mxCell id="gWq2CXGKpFRg3qJBpqlr-49" value="#_preview: HTMLElement // Content for modal" style="text;align=left;verticalAlign=top;spacingLeft=4;spacingRight=4;overflow=hidden;rotatable=0;points=[[0,0.5],[1,0.5]];portConstraint=eastwest;fontStyle=1" parent="gWq2CXGKpFRg3qJBpqlr-46" vertex="1">
          <mxGeometry y="78" width="310" height="26" as="geometry" />
        </mxCell>
        <mxCell id="gWq2CXGKpFRg3qJBpqlr-50" value="#_wrapper: HTMLElement" style="text;align=left;verticalAlign=top;spacingLeft=4;spacingRight=4;overflow=hidden;rotatable=0;points=[[0,0.5],[1,0.5]];portConstraint=eastwest;fontStyle=1" parent="gWq2CXGKpFRg3qJBpqlr-46" vertex="1">
          <mxGeometry y="104" width="310" height="26" as="geometry" />
        </mxCell>
        <mxCell id="gWq2CXGKpFRg3qJBpqlr-53" value="" style="line;html=1;strokeWidth=1;align=left;verticalAlign=middle;spacingTop=-1;spacingLeft=3;spacingRight=3;rotatable=0;labelPosition=right;points=[];portConstraint=eastwest;" parent="gWq2CXGKpFRg3qJBpqlr-46" vertex="1">
          <mxGeometry y="130" width="310" height="8" as="geometry" />
        </mxCell>
        <mxCell id="gWq2CXGKpFRg3qJBpqlr-54" value="set catalog() // Сами продукты" style="text;align=left;verticalAlign=top;spacingLeft=4;spacingRight=4;overflow=hidden;rotatable=0;points=[[0,0.5],[1,0.5]];portConstraint=eastwest;fontStyle=1" parent="gWq2CXGKpFRg3qJBpqlr-46" vertex="1">
          <mxGeometry y="138" width="310" height="26" as="geometry" />
        </mxCell>
        <mxCell id="gWq2CXGKpFRg3qJBpqlr-55" value="set preview()" style="text;align=left;verticalAlign=top;spacingLeft=4;spacingRight=4;overflow=hidden;rotatable=0;points=[[0,0.5],[1,0.5]];portConstraint=eastwest;fontStyle=1" parent="gWq2CXGKpFRg3qJBpqlr-46" vertex="1">
          <mxGeometry y="164" width="310" height="26" as="geometry" />
        </mxCell>
        <mxCell id="gWq2CXGKpFRg3qJBpqlr-56" value="set locked()" style="text;align=left;verticalAlign=top;spacingLeft=4;spacingRight=4;overflow=hidden;rotatable=0;points=[[0,0.5],[1,0.5]];portConstraint=eastwest;fontStyle=1" parent="gWq2CXGKpFRg3qJBpqlr-46" vertex="1">
          <mxGeometry y="190" width="310" height="26" as="geometry" />
        </mxCell>
        <mxCell id="GjS4NY_igWmzDTjKArRY-9" style="edgeStyle=orthogonalEdgeStyle;rounded=0;orthogonalLoop=1;jettySize=auto;html=1;" edge="1" parent="WIyWlLk6GJQsqaUBKTNV-1" source="GjS4NY_igWmzDTjKArRY-0" target="gWq2CXGKpFRg3qJBpqlr-14">
          <mxGeometry relative="1" as="geometry">
            <Array as="points">
              <mxPoint x="1200" y="460" />
              <mxPoint x="1200" y="460" />
            </Array>
          </mxGeometry>
        </mxCell>
        <mxCell id="GjS4NY_igWmzDTjKArRY-10" value="extends" style="edgeLabel;html=1;align=center;verticalAlign=middle;resizable=0;points=[];" vertex="1" connectable="0" parent="GjS4NY_igWmzDTjKArRY-9">
          <mxGeometry x="-0.1512" y="-1" relative="1" as="geometry">
            <mxPoint as="offset" />
          </mxGeometry>
        </mxCell>
        <mxCell id="GjS4NY_igWmzDTjKArRY-0" value="Modal" style="swimlane;fontStyle=3;align=center;verticalAlign=top;childLayout=stackLayout;horizontal=1;startSize=26;horizontalStack=0;resizeParent=1;resizeLast=0;collapsible=1;marginBottom=0;rounded=0;shadow=0;strokeWidth=1;fillStyle=auto;swimlaneFillColor=default;" vertex="1" parent="WIyWlLk6GJQsqaUBKTNV-1">
          <mxGeometry x="1013" y="530" width="310" height="170" as="geometry">
            <mxRectangle x="230" y="140" width="160" height="26" as="alternateBounds" />
          </mxGeometry>
        </mxCell>
        <mxCell id="GjS4NY_igWmzDTjKArRY-1" value="#_content: HTMLElement" style="text;align=left;verticalAlign=top;spacingLeft=4;spacingRight=4;overflow=hidden;rotatable=0;points=[[0,0.5],[1,0.5]];portConstraint=eastwest;fontStyle=1" vertex="1" parent="GjS4NY_igWmzDTjKArRY-0">
          <mxGeometry y="26" width="310" height="26" as="geometry" />
        </mxCell>
        <mxCell id="GjS4NY_igWmzDTjKArRY-2" value="#_button: HTMLElement" style="text;align=left;verticalAlign=top;spacingLeft=4;spacingRight=4;overflow=hidden;rotatable=0;points=[[0,0.5],[1,0.5]];portConstraint=eastwest;fontStyle=1" vertex="1" parent="GjS4NY_igWmzDTjKArRY-0">
          <mxGeometry y="52" width="310" height="26" as="geometry" />
        </mxCell>
        <mxCell id="GjS4NY_igWmzDTjKArRY-5" value="" style="line;html=1;strokeWidth=1;align=left;verticalAlign=middle;spacingTop=-1;spacingLeft=3;spacingRight=3;rotatable=0;labelPosition=right;points=[];portConstraint=eastwest;" vertex="1" parent="GjS4NY_igWmzDTjKArRY-0">
          <mxGeometry y="78" width="310" height="8" as="geometry" />
        </mxCell>
        <mxCell id="GjS4NY_igWmzDTjKArRY-6" value="set content()" style="text;align=left;verticalAlign=top;spacingLeft=4;spacingRight=4;overflow=hidden;rotatable=0;points=[[0,0.5],[1,0.5]];portConstraint=eastwest;fontStyle=1" vertex="1" parent="GjS4NY_igWmzDTjKArRY-0">
          <mxGeometry y="86" width="310" height="26" as="geometry" />
        </mxCell>
        <mxCell id="GjS4NY_igWmzDTjKArRY-7" value="open()" style="text;align=left;verticalAlign=top;spacingLeft=4;spacingRight=4;overflow=hidden;rotatable=0;points=[[0,0.5],[1,0.5]];portConstraint=eastwest;fontStyle=1" vertex="1" parent="GjS4NY_igWmzDTjKArRY-0">
          <mxGeometry y="112" width="310" height="26" as="geometry" />
        </mxCell>
        <mxCell id="GjS4NY_igWmzDTjKArRY-8" value="close()" style="text;align=left;verticalAlign=top;spacingLeft=4;spacingRight=4;overflow=hidden;rotatable=0;points=[[0,0.5],[1,0.5]];portConstraint=eastwest;fontStyle=1" vertex="1" parent="GjS4NY_igWmzDTjKArRY-0">
          <mxGeometry y="138" width="310" height="26" as="geometry" />
        </mxCell>
        <mxCell id="GjS4NY_igWmzDTjKArRY-20" style="edgeStyle=orthogonalEdgeStyle;rounded=0;orthogonalLoop=1;jettySize=auto;html=1;" edge="1" parent="WIyWlLk6GJQsqaUBKTNV-1" source="GjS4NY_igWmzDTjKArRY-11" target="gWq2CXGKpFRg3qJBpqlr-14">
          <mxGeometry relative="1" as="geometry" />
        </mxCell>
        <mxCell id="GjS4NY_igWmzDTjKArRY-29" value="extends" style="edgeLabel;html=1;align=center;verticalAlign=middle;resizable=0;points=[];" vertex="1" connectable="0" parent="GjS4NY_igWmzDTjKArRY-20">
          <mxGeometry x="-0.3804" relative="1" as="geometry">
            <mxPoint as="offset" />
          </mxGeometry>
        </mxCell>
        <mxCell id="GjS4NY_igWmzDTjKArRY-11" value="Basket" style="swimlane;fontStyle=3;align=center;verticalAlign=top;childLayout=stackLayout;horizontal=1;startSize=26;horizontalStack=0;resizeParent=1;resizeLast=0;collapsible=1;marginBottom=0;rounded=0;shadow=0;strokeWidth=1;fillStyle=auto;swimlaneFillColor=default;" vertex="1" parent="WIyWlLk6GJQsqaUBKTNV-1">
          <mxGeometry x="1460" y="20" width="310" height="240" as="geometry">
            <mxRectangle x="230" y="140" width="160" height="26" as="alternateBounds" />
          </mxGeometry>
        </mxCell>
        <mxCell id="GjS4NY_igWmzDTjKArRY-12" value="#_list: HTMLElement[]" style="text;align=left;verticalAlign=top;spacingLeft=4;spacingRight=4;overflow=hidden;rotatable=0;points=[[0,0.5],[1,0.5]];portConstraint=eastwest;fontStyle=1" vertex="1" parent="GjS4NY_igWmzDTjKArRY-11">
          <mxGeometry y="26" width="310" height="26" as="geometry" />
        </mxCell>
        <mxCell id="GjS4NY_igWmzDTjKArRY-13" value="#_total: HTMLElement" style="text;align=left;verticalAlign=top;spacingLeft=4;spacingRight=4;overflow=hidden;rotatable=0;points=[[0,0.5],[1,0.5]];portConstraint=eastwest;fontStyle=1" vertex="1" parent="GjS4NY_igWmzDTjKArRY-11">
          <mxGeometry y="52" width="310" height="26" as="geometry" />
        </mxCell>
        <mxCell id="GjS4NY_igWmzDTjKArRY-15" value="#_button: HTMLElement" style="text;align=left;verticalAlign=top;spacingLeft=4;spacingRight=4;overflow=hidden;rotatable=0;points=[[0,0.5],[1,0.5]];portConstraint=eastwest;fontStyle=1" vertex="1" parent="GjS4NY_igWmzDTjKArRY-11">
          <mxGeometry y="78" width="310" height="26" as="geometry" />
        </mxCell>
        <mxCell id="GjS4NY_igWmzDTjKArRY-16" value="" style="line;html=1;strokeWidth=1;align=left;verticalAlign=middle;spacingTop=-1;spacingLeft=3;spacingRight=3;rotatable=0;labelPosition=right;points=[];portConstraint=eastwest;" vertex="1" parent="GjS4NY_igWmzDTjKArRY-11">
          <mxGeometry y="104" width="310" height="8" as="geometry" />
        </mxCell>
        <mxCell id="GjS4NY_igWmzDTjKArRY-17" value="set items() // Сами продукты" style="text;align=left;verticalAlign=top;spacingLeft=4;spacingRight=4;overflow=hidden;rotatable=0;points=[[0,0.5],[1,0.5]];portConstraint=eastwest;fontStyle=1" vertex="1" parent="GjS4NY_igWmzDTjKArRY-11">
          <mxGeometry y="112" width="310" height="26" as="geometry" />
        </mxCell>
        <mxCell id="GjS4NY_igWmzDTjKArRY-18" value="set total()" style="text;align=left;verticalAlign=top;spacingLeft=4;spacingRight=4;overflow=hidden;rotatable=0;points=[[0,0.5],[1,0.5]];portConstraint=eastwest;fontStyle=1" vertex="1" parent="GjS4NY_igWmzDTjKArRY-11">
          <mxGeometry y="138" width="310" height="26" as="geometry" />
        </mxCell>
        <mxCell id="GjS4NY_igWmzDTjKArRY-28" style="edgeStyle=orthogonalEdgeStyle;rounded=0;orthogonalLoop=1;jettySize=auto;html=1;" edge="1" parent="WIyWlLk6GJQsqaUBKTNV-1" source="GjS4NY_igWmzDTjKArRY-21" target="gWq2CXGKpFRg3qJBpqlr-14">
          <mxGeometry relative="1" as="geometry" />
        </mxCell>
        <mxCell id="GjS4NY_igWmzDTjKArRY-30" value="extends" style="edgeLabel;html=1;align=center;verticalAlign=middle;resizable=0;points=[];" vertex="1" connectable="0" parent="GjS4NY_igWmzDTjKArRY-28">
          <mxGeometry x="-0.6901" y="1" relative="1" as="geometry">
            <mxPoint as="offset" />
          </mxGeometry>
        </mxCell>
        <mxCell id="GjS4NY_igWmzDTjKArRY-21" value="Success" style="swimlane;fontStyle=3;align=center;verticalAlign=top;childLayout=stackLayout;horizontal=1;startSize=26;horizontalStack=0;resizeParent=1;resizeLast=0;collapsible=1;marginBottom=0;rounded=0;shadow=0;strokeWidth=1;fillStyle=auto;swimlaneFillColor=default;" vertex="1" parent="WIyWlLk6GJQsqaUBKTNV-1">
          <mxGeometry x="1460" y="280" width="310" height="140" as="geometry">
            <mxRectangle x="230" y="140" width="160" height="26" as="alternateBounds" />
          </mxGeometry>
        </mxCell>
        <mxCell id="GjS4NY_igWmzDTjKArRY-22" value="#_total: HTMLElement" style="text;align=left;verticalAlign=top;spacingLeft=4;spacingRight=4;overflow=hidden;rotatable=0;points=[[0,0.5],[1,0.5]];portConstraint=eastwest;fontStyle=1" vertex="1" parent="GjS4NY_igWmzDTjKArRY-21">
          <mxGeometry y="26" width="310" height="26" as="geometry" />
        </mxCell>
        <mxCell id="GjS4NY_igWmzDTjKArRY-23" value="#_button: HTMLElement" style="text;align=left;verticalAlign=top;spacingLeft=4;spacingRight=4;overflow=hidden;rotatable=0;points=[[0,0.5],[1,0.5]];portConstraint=eastwest;fontStyle=1" vertex="1" parent="GjS4NY_igWmzDTjKArRY-21">
          <mxGeometry y="52" width="310" height="26" as="geometry" />
        </mxCell>
        <mxCell id="GjS4NY_igWmzDTjKArRY-25" value="" style="line;html=1;strokeWidth=1;align=left;verticalAlign=middle;spacingTop=-1;spacingLeft=3;spacingRight=3;rotatable=0;labelPosition=right;points=[];portConstraint=eastwest;" vertex="1" parent="GjS4NY_igWmzDTjKArRY-21">
          <mxGeometry y="78" width="310" height="8" as="geometry" />
        </mxCell>
        <mxCell id="GjS4NY_igWmzDTjKArRY-26" value="set total()" style="text;align=left;verticalAlign=top;spacingLeft=4;spacingRight=4;overflow=hidden;rotatable=0;points=[[0,0.5],[1,0.5]];portConstraint=eastwest;fontStyle=1" vertex="1" parent="GjS4NY_igWmzDTjKArRY-21">
          <mxGeometry y="86" width="310" height="26" as="geometry" />
        </mxCell>
        <mxCell id="GjS4NY_igWmzDTjKArRY-50" style="edgeStyle=orthogonalEdgeStyle;rounded=0;orthogonalLoop=1;jettySize=auto;html=1;" edge="1" parent="WIyWlLk6GJQsqaUBKTNV-1" source="GjS4NY_igWmzDTjKArRY-31" target="GjS4NY_igWmzDTjKArRY-40">
          <mxGeometry relative="1" as="geometry" />
        </mxCell>
        <mxCell id="GjS4NY_igWmzDTjKArRY-31" value="FormOrder" style="swimlane;fontStyle=3;align=center;verticalAlign=top;childLayout=stackLayout;horizontal=1;startSize=26;horizontalStack=0;resizeParent=1;resizeLast=0;collapsible=1;marginBottom=0;rounded=0;shadow=0;strokeWidth=1;fillStyle=auto;swimlaneFillColor=default;" vertex="1" parent="WIyWlLk6GJQsqaUBKTNV-1">
          <mxGeometry x="1370" y="620" width="310" height="90" as="geometry">
            <mxRectangle x="230" y="140" width="160" height="26" as="alternateBounds" />
          </mxGeometry>
        </mxCell>
        <mxCell id="GjS4NY_igWmzDTjKArRY-32" value="#_payment: HTMLElement[]" style="text;align=left;verticalAlign=top;spacingLeft=4;spacingRight=4;overflow=hidden;rotatable=0;points=[[0,0.5],[1,0.5]];portConstraint=eastwest;fontStyle=1" vertex="1" parent="GjS4NY_igWmzDTjKArRY-31">
          <mxGeometry y="26" width="310" height="26" as="geometry" />
        </mxCell>
        <mxCell id="GjS4NY_igWmzDTjKArRY-36" value="" style="line;html=1;strokeWidth=1;align=left;verticalAlign=middle;spacingTop=-1;spacingLeft=3;spacingRight=3;rotatable=0;labelPosition=right;points=[];portConstraint=eastwest;" vertex="1" parent="GjS4NY_igWmzDTjKArRY-31">
          <mxGeometry y="52" width="310" height="8" as="geometry" />
        </mxCell>
        <mxCell id="GjS4NY_igWmzDTjKArRY-59" value="set email()" style="text;align=left;verticalAlign=top;spacingLeft=4;spacingRight=4;overflow=hidden;rotatable=0;points=[[0,0.5],[1,0.5]];portConstraint=eastwest;fontStyle=1" vertex="1" parent="GjS4NY_igWmzDTjKArRY-31">
          <mxGeometry y="60" width="310" height="26" as="geometry" />
        </mxCell>
        <mxCell id="GjS4NY_igWmzDTjKArRY-48" style="edgeStyle=orthogonalEdgeStyle;rounded=0;orthogonalLoop=1;jettySize=auto;html=1;" edge="1" parent="WIyWlLk6GJQsqaUBKTNV-1" source="GjS4NY_igWmzDTjKArRY-40" target="gWq2CXGKpFRg3qJBpqlr-14">
          <mxGeometry relative="1" as="geometry">
            <Array as="points">
              <mxPoint x="1565" y="450" />
              <mxPoint x="1250" y="450" />
            </Array>
          </mxGeometry>
        </mxCell>
        <mxCell id="GjS4NY_igWmzDTjKArRY-49" value="extends" style="edgeLabel;html=1;align=center;verticalAlign=middle;resizable=0;points=[];" vertex="1" connectable="0" parent="GjS4NY_igWmzDTjKArRY-48">
          <mxGeometry x="-0.0851" relative="1" as="geometry">
            <mxPoint as="offset" />
          </mxGeometry>
        </mxCell>
        <mxCell id="GjS4NY_igWmzDTjKArRY-40" value="Form" style="swimlane;fontStyle=3;align=center;verticalAlign=top;childLayout=stackLayout;horizontal=1;startSize=26;horizontalStack=0;resizeParent=1;resizeLast=0;collapsible=1;marginBottom=0;rounded=0;shadow=0;strokeWidth=1;fillStyle=auto;swimlaneFillColor=default;" vertex="1" parent="WIyWlLk6GJQsqaUBKTNV-1">
          <mxGeometry x="1410" y="470" width="310" height="100" as="geometry">
            <mxRectangle x="230" y="140" width="160" height="26" as="alternateBounds" />
          </mxGeometry>
        </mxCell>
        <mxCell id="GjS4NY_igWmzDTjKArRY-43" value="#_submit: HTMLElement" style="text;align=left;verticalAlign=top;spacingLeft=4;spacingRight=4;overflow=hidden;rotatable=0;points=[[0,0.5],[1,0.5]];portConstraint=eastwest;fontStyle=1" vertex="1" parent="GjS4NY_igWmzDTjKArRY-40">
          <mxGeometry y="26" width="310" height="26" as="geometry" />
        </mxCell>
        <mxCell id="GjS4NY_igWmzDTjKArRY-44" value="" style="line;html=1;strokeWidth=1;align=left;verticalAlign=middle;spacingTop=-1;spacingLeft=3;spacingRight=3;rotatable=0;labelPosition=right;points=[];portConstraint=eastwest;" vertex="1" parent="GjS4NY_igWmzDTjKArRY-40">
          <mxGeometry y="52" width="310" height="8" as="geometry" />
        </mxCell>
        <mxCell id="GjS4NY_igWmzDTjKArRY-45" value="emitChanges(nameInput, value)" style="text;align=left;verticalAlign=top;spacingLeft=4;spacingRight=4;overflow=hidden;rotatable=0;points=[[0,0.5],[1,0.5]];portConstraint=eastwest;fontStyle=1" vertex="1" parent="GjS4NY_igWmzDTjKArRY-40">
          <mxGeometry y="60" width="310" height="26" as="geometry" />
        </mxCell>
        <mxCell id="GjS4NY_igWmzDTjKArRY-60" style="edgeStyle=orthogonalEdgeStyle;rounded=0;orthogonalLoop=1;jettySize=auto;html=1;" edge="1" parent="WIyWlLk6GJQsqaUBKTNV-1" source="GjS4NY_igWmzDTjKArRY-51" target="GjS4NY_igWmzDTjKArRY-40">
          <mxGeometry relative="1" as="geometry">
            <Array as="points">
              <mxPoint x="1895" y="520" />
            </Array>
          </mxGeometry>
        </mxCell>
        <mxCell id="GjS4NY_igWmzDTjKArRY-51" value="FormContact" style="swimlane;fontStyle=3;align=center;verticalAlign=top;childLayout=stackLayout;horizontal=1;startSize=26;horizontalStack=0;resizeParent=1;resizeLast=0;collapsible=1;marginBottom=0;rounded=0;shadow=0;strokeWidth=1;fillStyle=auto;swimlaneFillColor=default;" vertex="1" parent="WIyWlLk6GJQsqaUBKTNV-1">
          <mxGeometry x="1730" y="620" width="310" height="100" as="geometry">
            <mxRectangle x="230" y="140" width="160" height="26" as="alternateBounds" />
          </mxGeometry>
        </mxCell>
        <mxCell id="GjS4NY_igWmzDTjKArRY-55" value="" style="line;html=1;strokeWidth=1;align=left;verticalAlign=middle;spacingTop=-1;spacingLeft=3;spacingRight=3;rotatable=0;labelPosition=right;points=[];portConstraint=eastwest;" vertex="1" parent="GjS4NY_igWmzDTjKArRY-51">
          <mxGeometry y="26" width="310" height="8" as="geometry" />
        </mxCell>
        <mxCell id="GjS4NY_igWmzDTjKArRY-56" value="set phone()" style="text;align=left;verticalAlign=top;spacingLeft=4;spacingRight=4;overflow=hidden;rotatable=0;points=[[0,0.5],[1,0.5]];portConstraint=eastwest;fontStyle=1" vertex="1" parent="GjS4NY_igWmzDTjKArRY-51">
          <mxGeometry y="34" width="310" height="26" as="geometry" />
        </mxCell>
        <mxCell id="GjS4NY_igWmzDTjKArRY-57" value="set email()" style="text;align=left;verticalAlign=top;spacingLeft=4;spacingRight=4;overflow=hidden;rotatable=0;points=[[0,0.5],[1,0.5]];portConstraint=eastwest;fontStyle=1" vertex="1" parent="GjS4NY_igWmzDTjKArRY-51">
          <mxGeometry y="60" width="310" height="26" as="geometry" />
        </mxCell>
      </root>
    </mxGraphModel>
  </diagram>
</mxfile>
